<svg id="visual" viewBox="0 0 1080 250" width="1080" height="250" xmlns="http://www.w3.org/2000/svg" xmlns:xlink="http://www.w3.org/1999/xlink" version="1.1"><rect x="0" y="0" width="1080" height="250" fill="#232121"></rect><defs><linearGradient id="grad1_0" x1="76.9%" y1="0%" x2="100%" y2="100%"><stop offset="-36.400000000000006%" stop-color="#232121" stop-opacity="1"></stop><stop offset="136.39999999999998%" stop-color="#232121" stop-opacity="1"></stop></linearGradient></defs><defs><linearGradient id="grad2_0" x1="0%" y1="0%" x2="23.1%" y2="100%"><stop offset="-36.400000000000006%" stop-color="#232121" stop-opacity="1"></stop><stop offset="136.39999999999998%" stop-color="#232121" stop-opacity="1"></stop></linearGradient></defs><g transform="translate(1080, 0)"><path d="M0 249C-19.2 249.2 -38.3 249.5 -55.6 243.7C-73 238 -88.5 226.2 -104.1 216.2C-119.8 206.2 -135.7 198 -149 186.9C-162.4 175.7 -173.2 161.6 -186.1 148.4C-198.9 135.1 -213.8 122.7 -221.6 106.7C-229.5 90.8 -230.3 71.3 -232 53C-233.8 34.6 -236.4 17.3 -239 0L0 0Z" fill="#1451EF"></path></g><g transform="translate(0, 250)"><path d="M0 -246C18.2 -244.3 36.4 -242.5 54.5 -238.9C72.6 -235.2 90.7 -229.6 106.3 -220.7C122 -211.8 135.2 -199.6 150.9 -189.2C166.5 -178.8 184.6 -170.2 195.5 -155.9C206.3 -141.6 210.1 -121.6 215.3 -103.7C220.6 -85.8 227.3 -69.9 232 -53C236.7 -36 239.4 -18 242 0L0 0Z" fill="#1451EF"></path></g></svg>